<svg xmlns="http://www.w3.org/2000/svg" viewBox="0 0 480 270" width="480" height="270" role="img" aria-label="On Campus. Student community platform | Krea University"><title>On Campus. Student community platform | Krea University</title><defs></defs><clipPath id="s29"><rect width="480" height="270" rx="18"/></clipPath><linearGradient id="gs29" x1="0" y1="0" x2="1" y2="1"><stop offset="0" stop-color="#12203D"/><stop offset="1" stop-color="#0F1A30"/></linearGradient><linearGradient id="hs29" x1="0" x2="1"><stop offset="0" stop-color="#fff" stop-opacity="0"/><stop offset="0.5" stop-color="#fff" stop-opacity="0.09"/><stop offset="1" stop-color="#fff" stop-opacity="0"/></linearGradient><g clip-path="url(#s29)"><rect width="480" height="270" fill="url(#gs29)"/><rect x="0" y="0" width="480" height="3" fill="#A78BFA" opacity="0.9"/><text x="24" y="44" font-family="'Segoe UI', 'Helvetica Neue', Arial, sans-serif" font-size="19" font-weight="700" fill="#E6EDF7">On Campus</text><text x="24" y="64" font-family="'SFMono-Regular', Consolas, 'Liberation Mono', Menlo, monospace" font-size="11.5" fill="#8FA3C0">Student community platform | Krea University</text><rect x="364" y="20" width="92" height="28" rx="14" fill="#34D399" fill-opacity="0.12" stroke="#34D399" stroke-opacity="0.5"/><circle cx="378" cy="34" r="3.5" fill="#34D399"/><circle cx="378" cy="34" r="3.5" fill="none" stroke="#34D399"><animate attributeName="r" values="3.5;10" dur="1.8s" repeatCount="indefinite"/><animate attributeName="opacity" values="0.8;0" dur="1.8s" repeatCount="indefinite"/></circle><text x="390" y="38.5" font-family="'SFMono-Regular', Consolas, 'Liberation Mono', Menlo, monospace" font-size="10.5" font-weight="700" letter-spacing="0.8" fill="#A7F3D0">LIVE DEMO</text><g transform="translate(24 86)"><g><animateTransform attributeName="transform" type="translate" values="0 0;0 -6;0 0" dur="3.2s" begin="0.0s" repeatCount="indefinite" calcMode="spline" keySplines="0.4 0 0.6 1;0.4 0 0.6 1" keyTimes="0;0.5;1"/><rect x="0" y="4" width="132" height="74" rx="12" fill="#A78BFA" fill-opacity="0.09" stroke="#A78BFA" stroke-opacity="0.4"/><path transform="translate(38 6)" d="M12 6 h30 v26 h-30z M12 14 h30 M20 4 v6 M34 4 v6" fill="none" stroke="#A78BFA" stroke-width="2" stroke-linecap="round"/><text x="66" y="68" text-anchor="middle" font-family="'Segoe UI', 'Helvetica Neue', Arial, sans-serif" font-size="13" font-weight="600" fill="#E6EDF7">Events</text></g><g><animateTransform attributeName="transform" type="translate" values="0 0;0 -6;0 0" dur="3.2s" begin="0.5s" repeatCount="indefinite" calcMode="spline" keySplines="0.4 0 0.6 1;0.4 0 0.6 1" keyTimes="0;0.5;1"/><rect x="146" y="4" width="132" height="74" rx="12" fill="#A78BFA" fill-opacity="0.09" stroke="#A78BFA" stroke-opacity="0.4"/><path transform="translate(184 6)" d="M18 19 a10 10 0 1 0 0.1 0 M34 19 a10 10 0 1 0 0.1 0" fill="none" stroke="#A78BFA" stroke-width="2" stroke-linecap="round"/><text x="212" y="68" text-anchor="middle" font-family="'Segoe UI', 'Helvetica Neue', Arial, sans-serif" font-size="13" font-weight="600" fill="#E6EDF7">Travel split</text></g><g><animateTransform attributeName="transform" type="translate" values="0 0;0 -6;0 0" dur="3.2s" begin="1.0s" repeatCount="indefinite" calcMode="spline" keySplines="0.4 0 0.6 1;0.4 0 0.6 1" keyTimes="0;0.5;1"/><rect x="292" y="4" width="132" height="74" rx="12" fill="#A78BFA" fill-opacity="0.09" stroke="#A78BFA" stroke-opacity="0.4"/><path transform="translate(330 6)" d="M27 12 a5 5 0 1 0 0.1 0 M14 34 q13 -22 26 0 M10 26 a4 4 0 1 0 0.1 0 M44 26 a4 4 0 1 0 0.1 0" fill="none" stroke="#A78BFA" stroke-width="2" stroke-linecap="round"/><text x="358" y="68" text-anchor="middle" font-family="'Segoe UI', 'Helvetica Neue', Arial, sans-serif" font-size="13" font-weight="600" fill="#E6EDF7">Community</text></g><text x="0" y="108" font-family="'Segoe UI', 'Helvetica Neue', Arial, sans-serif" font-size="15" font-weight="800" fill="#FBBF24">1,000+ students</text><text x="128" y="108" font-family="'SFMono-Regular', Consolas, 'Liberation Mono', Menlo, monospace" font-size="11.5" fill="#8FA3C0">built with AI assisted development</text></g><g transform="translate(24 226)"><rect x="0.0" y="0" width="55.5" height="24" rx="12" fill="#A78BFA" fill-opacity="0.10" stroke="#A78BFA" stroke-opacity="0.35"/><text x="27.8" y="16" text-anchor="middle" font-family="'SFMono-Regular', Consolas, 'Liberation Mono', Menlo, monospace" font-size="11" fill="#C7D5EA" textLength="33.5" lengthAdjust="spacingAndGlyphs">React</text><rect x="63.5" y="0" width="82.3" height="24" rx="12" fill="#A78BFA" fill-opacity="0.10" stroke="#A78BFA" stroke-opacity="0.35"/><text x="104.7" y="16" text-anchor="middle" font-family="'SFMono-Regular', Consolas, 'Liberation Mono', Menlo, monospace" font-size="11" fill="#C7D5EA" textLength="60.3" lengthAdjust="spacingAndGlyphs">REST APIs</text><rect x="153.8" y="0" width="95.7" height="24" rx="12" fill="#A78BFA" fill-opacity="0.10" stroke="#A78BFA" stroke-opacity="0.35"/><text x="201.7" y="16" text-anchor="middle" font-family="'SFMono-Regular', Consolas, 'Liberation Mono', Menlo, monospace" font-size="11" fill="#C7D5EA" textLength="73.7" lengthAdjust="spacingAndGlyphs">Claude Code</text></g><rect y="0" width="110" height="270" fill="url(#hs29)" transform="skewX(-18)"><animate attributeName="x" values="-260;-260;640;640" keyTimes="0;0.5;0.78;1" dur="9s" begin="4.0s" repeatCount="indefinite"/></rect></g><rect x="0.5" y="0.5" width="479" height="269" rx="18" fill="none" stroke="#223152"/></svg>
